<?xml version="1.0" encoding="UTF-8" standalone="no"?>
<!-- Created with Inkscape (http://www.inkscape.org/) -->

<svg
   xmlns:dc="http://purl.org/dc/elements/1.1/"
   xmlns:cc="http://creativecommons.org/ns#"
   xmlns:rdf="http://www.w3.org/1999/02/22-rdf-syntax-ns#"
   xmlns:svg="http://www.w3.org/2000/svg"
   xmlns="http://www.w3.org/2000/svg"
   xmlns:sodipodi="http://sodipodi.sourceforge.net/DTD/sodipodi-0.dtd"
   xmlns:inkscape="http://www.inkscape.org/namespaces/inkscape"
   width="744.09448819"
   height="1052.3622047"
   id="svg2"
   version="1.1"
   inkscape:version="0.48.5 r10040"
   sodipodi:docname="logo.svg">
  <defs
     id="defs4" />
  <sodipodi:namedview
     id="base"
     pagecolor="#ffffff"
     bordercolor="#666666"
     borderopacity="1.0"
     inkscape:pageopacity="0.0"
     inkscape:pageshadow="2"
     inkscape:zoom="1.4142136"
     inkscape:cx="410.94373"
     inkscape:cy="464.19395"
     inkscape:document-units="px"
     inkscape:current-layer="layer5"
     showgrid="false"
     inkscape:window-width="1535"
     inkscape:window-height="876"
     inkscape:window-x="65"
     inkscape:window-y="24"
     inkscape:window-maximized="1"
     showguides="true"
     inkscape:guide-bbox="true">
    <sodipodi:guide
       orientation="0,1"
       position="335.16861,733.97684"
       id="guide3086" />
    <sodipodi:guide
       orientation="0,1"
       position="514,884"
       id="guide3088" />
    <sodipodi:guide
       orientation="0,1"
       position="43.929009,735.92139"
       id="guide3858" />
  </sodipodi:namedview>
  <metadata
     id="metadata7">
    <rdf:RDF>
      <cc:Work
         rdf:about="">
        <dc:format>image/svg+xml</dc:format>
        <dc:type
           rdf:resource="http://purl.org/dc/dcmitype/StillImage" />
        <dc:title></dc:title>
      </cc:Work>
    </rdf:RDF>
  </metadata>
  <g
     style="display:inline"
     inkscape:label="icons"
     id="g2999"
     inkscape:groupmode="layer">
    <rect
       style="color:#000000;fill:#000000;fill-opacity:0;stroke:none;stroke-width:10;marker:none;visibility:visible;display:inline;overflow:visible;enable-background:accumulate"
       id="rect3852-5"
       width="192"
       height="192"
       x="400"
       y="760.34937"
       inkscape:export-filename="/home/ns/workspace/MoveYourAss/wear/src/main/res/drawable-xxhdpi/ic_launcher.png"
       inkscape:export-xdpi="67.5"
       inkscape:export-ydpi="67.5" />
    <g
       id="g3790">
      <path
         transform="matrix(1.4142136,0,0,1.4142136,-179.00555,-474.92198)"
         d="m 544.47223,941.34644 a 67.17514,67.17514 0 1 1 -134.35028,0 67.17514,67.17514 0 1 1 134.35028,0 z"
         sodipodi:ry="67.17514"
         sodipodi:rx="67.17514"
         sodipodi:cy="941.34644"
         sodipodi:cx="477.29709"
         id="path3897"
         style="color:#000000;fill:#3f51b5;fill-opacity:1;fill-rule:nonzero;stroke:none;stroke-width:10;marker:none;visibility:visible;display:inline;overflow:visible;enable-background:accumulate"
         sodipodi:type="arc" />
      <path
         id="rect3836-2"
         d="m 570.75552,809.07452 -15.78125,27.21875 -51.03125,55.125 -83.65625,10.84375 35.625,40.21875 c 12.18308,5.68072 25.76474,8.875 40.09375,8.875 52.46705,0 95,-42.53295 95,-95 0,-10.03553 -1.5847,-19.70073 -4.46875,-28.78125 l -15.78125,-18.5 z"
         style="color:#000000;fill:#1a237e;fill-opacity:1;stroke:none;stroke-width:1.0629921;marker:none;visibility:visible;display:inline;overflow:visible;enable-background:accumulate"
         inkscape:connector-curvature="0" />
      <path
         style="fill:#ffffff;fill-opacity:1;stroke:none"
         d="m 422.28194,899.05762 c 0,0 10.40124,-3.64829 24.67668,-4.68006 9.76242,-0.70559 16.80566,-2.1273 21.91119,-3.82914 2.18294,-0.72766 -4.68006,-4.04186 -4.68006,-4.04186 0,0 -5.33055,-9.39899 -4.04187,-9.78559 4.2546,-1.27638 1.27639,-6.59463 4.46733,-9.78558 3.19095,-3.19095 9.36012,-2.34003 8.72193,-7.23281 -0.63819,-4.8928 -6.34628,-8.92257 -3.40368,-8.29648 11.51011,2.44896 18.23851,7.21313 22.73292,12.90926 3.36963,4.27061 10.85635,4.52315 12.58027,3.25822 13.15396,-9.65178 13.82743,-19.99661 18.29476,-34.24952 4.46733,-14.25292 20.38903,-23.10188 33.18588,-17.86932 12.79684,5.23254 10.54313,-4.51175 1.84417,-6.90028 -4.98118,-1.3677 -11.73006,-1.24106 -15.03343,-0.75805 -25.39445,3.71355 -41.87725,16.20772 -52.75704,22.54937 -7.68677,4.4805 -19.27679,-8.75249 5.68872,-15.51945 10.57151,-2.86544 33.75402,-16.68842 58.13028,-13.41181 23.82795,3.20289 17.44386,17.44385 15.95475,25.10213 -0.89697,4.61296 4.25461,9.78558 -0.85092,26.37851 -3.28431,10.67396 -3.57973,18.7486 -5.10552,31.05858 -1.28623,10.37707 -14.8911,23.61302 -20.42208,25.5276 -3.61849,1.25255 -14.28201,-1.95001 -3.40369,-6.3819 5.74372,-2.34003 6.59464,-8.08374 7.6583,-12.55108 1.06365,-4.46733 -1.91458,-4.25459 -2.7655,-6.80735 -0.85092,-2.55277 -2.76549,-7.44555 -2.76549,-7.44555 0,0 -3.19095,14.2529 -20.84753,22.33664 -17.60249,8.05897 -36.58956,3.19095 -56.37345,2.55276 -19.5656,-0.63115 -40.24184,3.86093 -41.05688,3.61642 -8.5092,-2.55277 -2.34004,-5.74371 -2.34004,-5.74371 z"
         id="path3001-3"
         inkscape:connector-curvature="0"
         sodipodi:nodetypes="csscssssssszsssssssssssscssscc" />
    </g>
    <g
       id="g3778">
      <g
         inkscape:export-ydpi="67.5"
         inkscape:export-xdpi="67.5"
         inkscape:export-filename="/home/ns/workspace/MoveYourAss/mobile/src/main/res/drawable-xxhdpi/ic_launcher.png"
         id="g3862">
        <rect
           y="787.2652"
           x="101.00217"
           height="138.1787"
           width="189.99571"
           id="rect3795"
           style="color:#000000;fill:#3f51b5;fill-opacity:1;stroke:none;stroke-width:1.0629921;marker:none;visibility:visible;display:inline;overflow:visible;enable-background:accumulate"
           rx="16.617035" />
        <path
           style="color:#000000;fill:#1a237f;fill-opacity:1;stroke:none;stroke-width:1.0629921;marker:none;visibility:visible;display:inline;overflow:visible;enable-background:accumulate"
           d="m 270.45753,810.08536 -15.75426,27.22417 -51.04111,55.12305 -83.66288,10.86268 12.78558,22.16392 141.58593,0 c 9.20584,0 16.63138,-7.42554 16.63138,-16.63137 l 0,-64.46765 -20.54464,-34.2748 z"
           id="rect3836"
           inkscape:connector-curvature="0" />
        <path
           sodipodi:nodetypes="csscssssssszsssssssssssscssscc"
           inkscape:connector-curvature="0"
           id="path3001"
           d="m 121.99735,900.07685 c 0,0 10.40124,-3.64829 24.67668,-4.68006 9.76242,-0.70559 16.80566,-2.1273 21.91119,-3.82914 2.18294,-0.72766 -4.68006,-4.04186 -4.68006,-4.04186 0,0 -5.33055,-9.39899 -4.04187,-9.78559 4.2546,-1.27638 1.27639,-6.59463 4.46733,-9.78558 3.19095,-3.19095 9.36012,-2.34003 8.72193,-7.23281 -0.63819,-4.8928 -6.34628,-8.92257 -3.40368,-8.29648 11.51011,2.44896 18.23851,7.21313 22.73292,12.90926 3.36963,4.27061 10.85635,4.52315 12.58027,3.25822 13.15396,-9.65178 13.82743,-19.99661 18.29476,-34.24952 4.46733,-14.25292 20.38903,-23.10188 33.18588,-17.86932 12.79684,5.23254 10.54313,-4.51175 1.84417,-6.90028 -4.98118,-1.3677 -11.73006,-1.24106 -15.03343,-0.75805 -25.39445,3.71355 -41.87725,16.20772 -52.75704,22.54937 -7.68677,4.4805 -19.27679,-8.75249 5.68872,-15.51945 10.57151,-2.86544 33.75402,-16.68842 58.13028,-13.41181 23.82795,3.20289 17.44386,17.44385 15.95475,25.10213 -0.89697,4.61296 4.25461,9.78558 -0.85092,26.37851 -3.28431,10.67396 -3.57973,18.7486 -5.10552,31.05858 -1.28623,10.37707 -14.8911,23.61302 -20.42208,25.5276 -3.61849,1.25255 -14.28201,-1.95001 -3.40369,-6.3819 5.74372,-2.34003 6.59464,-8.08374 7.6583,-12.55108 1.06365,-4.46733 -1.91458,-4.25459 -2.7655,-6.80735 -0.85092,-2.55277 -2.76549,-7.44555 -2.76549,-7.44555 0,0 -3.19095,14.2529 -20.84753,22.33664 -17.60249,8.05897 -36.58956,3.19095 -56.37345,2.55276 -19.5656,-0.63115 -40.24184,3.86093 -41.05688,3.61642 -8.5092,-2.55277 -2.34004,-5.74371 -2.34004,-5.74371 z"
           style="fill:#ffffff;fill-opacity:1;stroke:none" />
      </g>
      <rect
         y="787.2652"
         x="101.00217"
         height="138.1787"
         width="189.99571"
         id="rect3921"
         style="color:#000000;fill:#3f51b5;fill-opacity:1;stroke:none;stroke-width:1.0629921;marker:none;visibility:visible;display:inline;overflow:visible;enable-background:accumulate"
         rx="16.617035" />
      <path
         style="color:#000000;fill:#1a237e;fill-opacity:1;stroke:none;stroke-width:1.0629921;marker:none;visibility:visible;display:inline;overflow:visible;enable-background:accumulate"
         d="m 270.45753,810.08536 -15.75426,27.22417 -51.04111,55.12305 -83.66288,10.86268 12.78558,22.16392 141.58593,0 c 9.20584,0 16.63138,-7.42554 16.63138,-16.63137 l 0,-64.46765 -20.54464,-34.2748 z"
         id="path3923"
         inkscape:connector-curvature="0" />
      <path
         sodipodi:nodetypes="csscssssssszsssssssssssscssscc"
         inkscape:connector-curvature="0"
         id="path3925"
         d="m 121.99735,900.07685 c 0,0 10.40124,-3.64829 24.67668,-4.68006 9.76242,-0.70559 16.80566,-2.1273 21.91119,-3.82914 2.18294,-0.72766 -4.68006,-4.04186 -4.68006,-4.04186 0,0 -5.33055,-9.39899 -4.04187,-9.78559 4.2546,-1.27638 1.27639,-6.59463 4.46733,-9.78558 3.19095,-3.19095 9.36012,-2.34003 8.72193,-7.23281 -0.63819,-4.8928 -6.34628,-8.92257 -3.40368,-8.29648 11.51011,2.44896 18.23851,7.21313 22.73292,12.90926 3.36963,4.27061 10.85635,4.52315 12.58027,3.25822 13.15396,-9.65178 13.82743,-19.99661 18.29476,-34.24952 4.46733,-14.25292 20.38903,-23.10188 33.18588,-17.86932 12.79684,5.23254 10.54313,-4.51175 1.84417,-6.90028 -4.98118,-1.3677 -11.73006,-1.24106 -15.03343,-0.75805 -25.39445,3.71355 -41.87725,16.20772 -52.75704,22.54937 -7.68677,4.4805 -19.27679,-8.75249 5.68872,-15.51945 10.57151,-2.86544 33.75402,-16.68842 58.13028,-13.41181 23.82795,3.20289 17.44386,17.44385 15.95475,25.10213 -0.89697,4.61296 4.25461,9.78558 -0.85092,26.37851 -3.28431,10.67396 -3.57973,18.7486 -5.10552,31.05858 -1.28623,10.37707 -14.8911,23.61302 -20.42208,25.5276 -3.61849,1.25255 -14.28201,-1.95001 -3.40369,-6.3819 5.74372,-2.34003 6.59464,-8.08374 7.6583,-12.55108 1.06365,-4.46733 -1.91458,-4.25459 -2.7655,-6.80735 -0.85092,-2.55277 -2.76549,-7.44555 -2.76549,-7.44555 0,0 -3.19095,14.2529 -20.84753,22.33664 -17.60249,8.05897 -36.58956,3.19095 -56.37345,2.55276 -19.5656,-0.63115 -40.24184,3.86093 -41.05688,3.61642 -8.5092,-2.55277 -2.34004,-5.74371 -2.34004,-5.74371 z"
         style="fill:#ffffff;fill-opacity:1;stroke:none" />
    </g>
  </g>
  <g
     inkscape:groupmode="layer"
     id="layer1"
     inkscape:label="invisible">
    <rect
       style="color:#000000;fill:#000000;fill-opacity:0;fill-rule:nonzero;stroke:none;stroke-width:10;marker:none;visibility:visible;display:inline;overflow:visible;enable-background:accumulate"
       id="rect3084"
       width="291.05411"
       height="149.84641"
       x="-676.71307"
       y="168.36218"
       inkscape:export-filename="/home/ns/workspace/MoveYourAss/mobile/src/main/res/drawable/cat_driving.png"
       inkscape:export-xdpi="153.75742"
       inkscape:export-ydpi="153.75742"
       transform="scale(-1,1)" />
    <rect
       y="168.36218"
       x="-362.71307"
       height="149.84641"
       width="212.2117"
       id="rect3860"
       style="color:#000000;fill:#000000;fill-opacity:0;fill-rule:nonzero;stroke:none;stroke-width:10;marker:none;visibility:visible;display:inline;overflow:visible;enable-background:accumulate"
       inkscape:export-filename="/home/ns/workspace/MoveYourAss/mobile/src/main/res/drawable/cat_walking.png"
       inkscape:export-xdpi="153.75742"
       inkscape:export-ydpi="153.75742"
       transform="scale(-1,1)" />
    <rect
       style="color:#000000;fill:#000000;fill-opacity:0;fill-rule:nonzero;stroke:none;stroke-width:10;marker:none;visibility:visible;display:inline;overflow:visible;enable-background:accumulate"
       id="rect3862"
       width="82.457603"
       height="149.84641"
       x="-116.71307"
       y="168.36218"
       inkscape:export-filename="/home/ns/workspace/MoveYourAss/mobile/src/main/res/drawable/cat_sitting.png"
       inkscape:export-xdpi="153.75742"
       inkscape:export-ydpi="153.75742"
       transform="scale(-1,1)" />
    <rect
       y="168.36218"
       x="-9.2130585"
       height="149.84641"
       width="193.74113"
       id="rect3864"
       style="color:#000000;fill:#000000;fill-opacity:0;fill-rule:nonzero;stroke:none;stroke-width:10;marker:none;visibility:visible;display:inline;overflow:visible;enable-background:accumulate"
       inkscape:export-filename="/home/ns/workspace/MoveYourAss/mobile/src/main/res/drawable/cat_lying.png"
       inkscape:export-xdpi="153.75742"
       inkscape:export-ydpi="153.75742"
       transform="scale(-1,1)" />
  </g>
  <g
     inkscape:groupmode="layer"
     id="g3798"
     inkscape:label="original cat"
     style="display:inline">
    <path
       style="fill:#000000;fill-opacity:1;stroke:none"
       d="m 18.961485,665.21953 c 0,0 9.63505,-3.37955 22.858909,-4.33531 9.04329,-0.65362 15.5677,-1.9706 20.29714,-3.54708 2.02214,-0.67405 -4.33531,-3.74412 -4.33531,-3.74412 0,0 -4.93788,-8.70663 -3.74413,-9.06475 3.94119,-1.18236 1.18236,-6.10885 4.13825,-9.06474 2.95589,-2.9559 8.67062,-2.16766 8.07944,-6.70002 -0.59118,-4.53238 -5.87879,-8.2653 -3.15295,-7.68533 10.66224,2.26856 16.894996,6.68178 21.058336,11.95832 3.12141,3.95602 10.05663,4.18996 11.65356,3.01821 12.185,-8.9408 12.80886,-18.5236 16.94711,-31.72659 4.13825,-13.203 18.88711,-21.40012 30.7413,-16.55301 11.85418,4.8471 9.76649,-4.1794 1.70832,-6.39198 -4.61425,-1.26695 -10.86598,-1.14964 -13.92602,-0.70221 -23.52381,3.44 -38.79243,15.01381 -48.87078,20.88831 -7.120536,4.15045 -17.856796,-8.10775 5.26967,-14.37624 9.79278,-2.65436 31.26759,-15.45909 53.84821,-12.42385 22.07271,2.96696 16.15889,16.15888 14.77947,23.25303 -0.83089,4.27315 3.9412,9.06474 -0.78824,24.43538 -3.04237,9.88768 -3.31603,17.36751 -4.72943,28.7707 -1.19148,9.61266 -13.79417,21.87361 -18.91772,23.64715 -3.35194,1.16029 -13.22995,-1.80636 -3.15296,-5.91179 5.32062,-2.16765 6.10886,-7.48826 7.09416,-11.62652 0.9853,-4.13825 -1.77354,-3.94118 -2.56178,-6.3059 -0.78824,-2.36472 -2.56178,-6.89709 -2.56178,-6.89709 0,0 -2.95589,13.20299 -19.31183,20.69125 -16.30583,7.46532 -33.894246,2.9559 -52.220786,2.36472 -18.12434,-0.58466 -37.277499,3.57652 -38.032499,3.35002 -7.882381,-2.36472 -2.16766,-5.32061 -2.16766,-5.32061 z"
       id="path3800"
       inkscape:connector-curvature="0"
       sodipodi:nodetypes="csscssssssszsssssssssssscssscc" />
  </g>
  <g
     inkscape:groupmode="layer"
     id="layer2"
     inkscape:label="sitting cat"
     style="display:inline">
    <path
       style="fill:#3f51b5;fill-opacity:1;stroke:none"
       d="m 52.641869,247.32353 c 4.65267,9.82459 7.66369,10.41601 4.20151,24.58985 -3.25687,13.33335 -1.76712,14.8597 -4.09346,15.56145 -2.326343,0.70177 -5.787623,-0.0944 -6.252883,1.30907 -0.46528,1.40351 -2.2445,6.88985 24.823653,6.9466 11.96722,0.0251 27.75693,-1.00254 31.445881,-1.26285 3.81384,-0.26914 4.89815,5.29383 3.3669,7.43232 -4.1874,5.84797 -14.922071,11.55322 -25.862241,8.55323 -3.08163,-0.84504 -9.1228,-4.30595 -11.97435,-4.30092 -7.03799,0.0128 -8.44088,5.34187 1.35546,7.93497 17.16569,4.54379 40.433481,3.1354 43.775031,-10.91391 3.2217,-13.54551 -3.90075,-14.7535 -3.43549,-21.30322 0.46526,-6.54973 5.74528,-26.52971 0.40641,-40.43024 -4.61183,-12.00755 -18.541571,-19.45978 -25.178031,-24.13335 -13.07922,-9.21069 -9.86958,-13.60336 -10.87046,-18.33156 -0.78345,-3.70094 -1.80769,-5.01457 -3.59315,-8.00233 -3.31469,-5.54672 -6.34441,-2.14297 -9.73997,-7.50892 -3.24703,-5.13121 -2.65845,-9.21944 -7.75331,-8.99168 1.2812,4.63408 3.07211,10.53212 -1.9915,11.90979 -8.553443,2.32714 -7.274753,6.1586 -9.822213,6.82378 -3.99953,1.04431 -5.29191,3.5016 -4.42247,6.29918 2.32634,7.48539 8.69212,5.41338 9.29365,12.93891 0.54339,6.79791 -3.6423,14.20741 -0.19271,22.71605 2.35643,5.81229 6.513743,12.16378 6.513743,12.16378 z"
       id="path3080"
       inkscape:connector-curvature="0"
       sodipodi:nodetypes="csssssssssssssssscsssssc"
       inkscape:export-filename="/home/ns/workspace/MoveYourAss/mobile/src/main/res/drawable/cat_sitting.png"
       inkscape:export-xdpi="153.75742"
       inkscape:export-ydpi="153.75742" />
  </g>
  <g
     inkscape:groupmode="layer"
     id="layer3"
     inkscape:label="walking cat">
    <path
       style="fill:#3f51b5;fill-opacity:1;stroke:none"
       d="m 237.38854,209.88172 c -10.26751,1.39221 -36.19731,9.57141 -46.29079,-0.52207 -7.59457,-7.59457 -5.82484,-23.10953 -8.35322,-24.18955 -2.52838,-1.08002 -3.80312,10.99253 -12.52984,10.78958 -7.4831,-0.17402 -14.05934,-8.43412 -15.6623,-8.00517 -1.60296,0.42895 6.09089,6.09089 2.95844,13.22594 -3.13246,7.13505 -5.56882,13.22594 -5.56882,15.14022 0,1.91428 6.45759,6.10487 8.52725,7.65712 5.56881,4.17662 4.67762,0.64071 10.09348,16.01035 5.81652,16.50665 10.9636,11.65971 16.53243,24.18954 3.39845,7.64652 -3.13247,21.92722 -7.13505,32.89082 -4.00259,10.96362 -5.91688,10.26751 -6.43895,13.74803 -0.52207,3.4805 -0.6961,5.39479 4.52467,5.56881 5.22076,0.17403 5.74284,0.34805 13.57398,-17.7506 7.38968,-17.07835 9.39738,-19.31684 9.39738,-19.31684 0,0 4.6987,7.4831 3.13246,13.05191 -1.56622,5.56883 -4.52465,7.30908 -4.52465,7.30908 0,0 -0.85204,5.25056 3.13245,4.87271 2.78919,-0.26448 7.83115,1.21819 10.09348,-13.57399 2.26234,-14.79217 -2.98945,-30.36111 12.87789,-33.41289 16.29998,-3.13499 16.74445,-1.86768 22.27526,-1.21819 5.9277,0.69611 4.00259,9.57141 10.26751,14.44412 4.57456,3.558 11.48569,8.00518 11.83374,13.22594 0.34805,5.22077 -0.34805,11.65972 -5.56882,13.57399 -5.22076,1.91428 -8.00517,3.65454 -8.52726,4.52466 -0.52207,0.87014 -1.04415,5.04674 3.82857,5.39479 4.87272,0.34805 12.18179,-2.61038 15.14022,-6.26491 2.95843,-3.65454 12.18178,-10.61555 11.83373,-18.79475 -0.34805,-8.17921 -1.21817,-11.48569 -1.21817,-11.48569 0,0 10.09348,1.74026 9.74543,10.78958 -0.23448,6.09632 -2.67715,5.95026 -6.0909,7.65712 -3.13246,1.56623 -4.69868,5.91688 -0.6961,6.43895 4.00259,0.52207 9.22334,1.04415 11.83374,-5.74284 2.03392,-5.28821 3.06675,-12.72425 4.1766,-16.18438 2.95844,-9.22335 -4.52465,-6.78699 -9.91945,-20.18696 -3.22223,-8.00358 -1.3922,-7.83115 -1.91428,-12.52983 -0.46855,-8.79855 3.8533,-5.2313 7.16199,-4.88247 5.56882,0.52209 27.13205,-3.70531 35.6593,-25.80655 8.52724,-22.10124 7.29806,-20.99657 14.95518,-26.73941 6.92473,-5.19354 11.83374,-4.69869 10.61556,-8.17919 -1.21818,-3.48051 -5.22077,-5.74284 -9.39739,-4.35064 -4.1766,1.39221 -12.70385,4.90023 -16.88046,12.55736 -4.17662,7.65712 -3.86013,12.47149 -6.74298,21.38862 -3.82062,11.81785 -6.46795,14.25106 -18.49073,20.89406 -9.24147,5.10624 -16.91888,-4.89938 -25.58175,-11.33366 -8.99621,-6.68188 -15.66229,-6.78699 -29.06226,-6.78699 -13.05655,0 -17.57657,1.91427 -17.57657,1.91427 z"
       id="path3873"
       inkscape:connector-curvature="0"
       sodipodi:nodetypes="cszszssssssssscscssssssssssscssssssccsssssssssc"
       inkscape:export-filename="/home/ns/workspace/MoveYourAss/mobile/src/main/res/drawable/cat_walking.png"
       inkscape:export-xdpi="153.75742"
       inkscape:export-ydpi="153.75742" />
  </g>
  <g
     inkscape:groupmode="layer"
     id="layer4"
     inkscape:label="sleeping cat">
    <path
       style="fill:#3f51b5;fill-opacity:1;stroke:none"
       d="m -72.526738,236.79392 c -9.688367,-0.29807 -31.071682,2.74501 -34.162992,4.71219 -3.09128,1.96719 -10.27385,3.12984 -11.51088,-0.02 -1.87076,-4.76333 -4.33181,-2.39285 -4.61284,-9.69956 -0.28101,-7.30669 4.62697,-7.53949 3.0913,-8.4308 -2.62904,-1.52589 -8.49607,6.08324 -11.30632,4.67811 -2.81027,-1.40514 -17.15968,-1.96719 -19.96993,0 -2.81028,1.96718 -4.44833,-0.95701 -6.46363,-2.26235 -3.14242,-2.03536 -5.68447,-1.81645 -5.53821,-1.29165 0.14626,0.52482 7.69128,7.87481 4.9932,14.16532 -1.03567,2.41465 -1.35961,10.7339 1.73731,13.92031 4.5164,4.64691 7.55369,10.41608 7.05684,19.3996 -0.51385,9.29092 -7.77524,8.4761 -16.76809,14.65867 -8.99287,6.18258 -16.77344,11.63264 -17.61652,15.286 -0.84308,3.65335 0.70962,4.72922 3.51989,5.85333 2.81027,1.12411 23.25703,-11.09349 24.38113,-11.65553 1.12412,-0.56205 15.92501,-7.55362 20.42144,-9.23978 4.49643,-1.68617 2.97197,2.79613 -1.80549,6.44949 -4.77746,3.65333 -8.28323,4.57872 -9.96939,7.67001 -1.68615,3.0913 1.01356,9.57196 7.89749,6.34429 2.6565,-1.24557 10.25283,-5.84749 14.88271,-10.59377 3.74904,-3.84329 13.88671,-2.31641 19.39668,-3.83795 2.66793,-0.73673 7.212515,-0.24941 10.809545,0.44858 7.0656,1.37104 14.52813,-0.44858 20.148677,-0.29808 5.68136,0.15214 8.1186,1.53859 12.33399,2.10064 4.2154,0.56206 6.527,-0.60602 9.30504,0.99066 2.64718,1.52145 0.61321,5.50413 8.34021,3.35235 3.56085,-0.99162 10.06826,-3.74978 14.56761,-6.3925 4.169,-2.44872 6.20841,-6.86104 9.86174,-6.01796 3.65336,0.84308 9.49499,3.61107 14.8345003,7.26431 5.3395,3.65336 5.53883,10.85555 -7.5064203,13.06654 -7.74327,1.31238 -5.7321,7.97153 -0.59372,8.97095 2.02992,0.39483 11.7344803,-1.27572 16.5204403,-5.80264 5.37361,-5.08276 5.29809,-13.32258 2.43504,-17.49774 -6.17674,-9.00749 -20.2397903,-11.55669 -23.8931203,-15.21005 -3.65334,-3.65335 -3.81796,-3.99963 -7.19028,-9.33913 -3.37232,-5.3395 -4.04785,-8.95876 -9.37324,-15.19248 -4.30803,-5.04286 -11.0253,-9.83886 -17.69056,-12.2176 -5.50755,-1.96558 -10.87479,-4.03373 -20.56315,-4.3318 z"
       id="path3911"
       inkscape:connector-curvature="0"
       sodipodi:nodetypes="cssssssszssssssssssssssssssssssssssssszc"
       inkscape:export-filename="/home/ns/workspace/MoveYourAss/mobile/src/main/res/drawable/cat_lying.png"
       inkscape:export-xdpi="153.75742"
       inkscape:export-ydpi="153.75742" />
  </g>
  <g
     inkscape:groupmode="layer"
     id="layer6"
     inkscape:label="driving cat">
    <path
       style="fill:#3f51b5;fill-opacity:1;stroke:none"
       d="m 522.84314,193.79605 c 4.38176,0.29626 4.02141,4.41831 7.23917,9.50328 3.5893,5.6721 6.80382,2.06117 10.30763,7.92436 1.88733,3.15822 2.95529,4.54851 3.78344,8.4606 1.05798,4.99796 -2.32618,9.65764 11.49926,19.39383 2.38422,1.67903 5.66986,3.73538 9.14578,6.16671 10.65425,-10.91015 11.50738,-9.00503 20.70464,-10.06931 l -0.92352,7.95416 8.43081,6.61356 c 4.75945,-2.4014 10.12396,-3.75364 15.81893,-3.75364 7.54275,0 14.52895,2.36538 20.25777,6.40503 l 8.40101,-14.44856 -32.35284,0 c 0,0 0.016,-1.74527 1.84703,-6.01775 1.83105,-4.27246 6.07733,-7.92436 6.07733,-7.92436 0,0 -2.54254,-1.0245 22.07501,-3.87281 24.61754,-2.84832 19.21508,-16.05726 19.21508,-16.05726 l 20.76422,-0.11916 c 0,0 0.42295,3.03431 -2.53222,16.8914 -4.44102,20.82427 -17.81492,17.18931 -17.81492,17.18931 l -8.22227,24.30933 c 0,0 -1.53315,1.85719 0.2979,2.2641 1.83106,0.40689 1.33817,-0.29803 2.53222,0.59582 1.19405,0.89385 0.10607,2.42975 3.15783,5.48151 3.05177,3.05175 2.35348,6.22628 2.35348,6.22628 0,0 7.63881,-0.005 7.53708,1.01289 -0.10172,1.01726 2.01851,4.86605 2.32369,9.4437 0.30518,4.57763 -11.90253,12.21206 -13.73358,12.72068 -1.83106,0.50864 -7.20938,5.89859 -7.20938,5.89859 l -10.00972,0 c -6.37625,6.42145 -15.20035,10.397 -24.96472,10.397 -7.60511,0 -14.65159,-2.42341 -20.40672,-6.52419 -22.42039,-0.008 -79.07328,-0.0454 -89.34272,-0.29791 -3.43541,-0.0845 -10.45312,-1.40317 -18.73843,-3.21741 -5.18744,6.12834 -12.94047,10.03951 -21.59836,10.03951 -13.57099,0 -24.90641,-9.56093 -27.64589,-22.31334 -0.69023,-0.18673 -2.97909,-0.80435 -2.97909,-0.80435 0,0 0.51443,3.17671 1.42997,5.71984 0.91551,2.54313 3.8728,8.72872 3.8728,8.72872 l -46.05663,0 c 5.05639,-5.95158 -0.14505,-7.18288 17.5766,-11.17157 l 1.31079,-5.60067 c 0,0 -1.44357,0.83584 -5.60067,-0.80436 -5.23737,-2.06641 -5.36816,-4.78395 -6.79231,-9.05641 -1.42416,-4.27247 3.43383,-5.90654 21.03232,-10.99282 6.87819,-1.98792 16.65861,-3.19472 26.0074,-3.93239 4.86666,-3.96174 11.08017,-6.34545 17.84471,-6.34545 4.64386,0 9.03353,1.14446 12.89943,3.12804 l 10.39701,-8.22227 c 0,0 -2.58885,0.0378 -2.26411,-3.15783 0.31465,-3.09624 9.29474,-4.55799 9.29474,-4.55799 0,0 -0.41707,3.64899 -0.41707,7.20938 -1.11492,-1.8e-4 -2.44285,-0.0893 -2.44285,-0.0893 l 1.01289,12.51215 12.81006,0.71498 c 8.70697,-4.09571 12.65191,-7.07086 14.41876,-9.17557 -0.0334,-0.0807 -0.0865,-0.15771 -0.11916,-0.23833 -3.6464,-8.99409 0.78293,-16.82565 0.20854,-24.01141 -0.63586,-7.95489 -7.37192,-5.76154 -9.83098,-13.674 -0.91904,-2.95719 0.44946,-5.53946 4.67716,-6.64335 2.69281,-0.70313 1.35556,-4.74947 10.397,-7.20938 5.35252,-1.45627 3.43966,-7.70306 2.08536,-12.60153 0.3366,-0.0151 0.66119,-0.0197 0.95331,0 z m 86.00614,65.21214 c -12.24754,0 -22.16438,9.91684 -22.16438,22.16438 0,12.24754 9.91684,22.19418 22.16438,22.19418 12.24754,0 22.16438,-9.94664 22.16438,-22.19418 0,-12.24754 -9.91684,-22.16438 -22.16438,-22.16438 z m -150.08623,11.26094 c -9.84051,0 -17.81492,7.97441 -17.81492,17.81492 0,9.84051 7.97441,17.81492 17.81492,17.81492 9.84051,0 17.81492,-7.97441 17.81492,-17.81492 0,-9.84051 -7.97441,-17.81492 -17.81492,-17.81492 z"
       id="path3123"
       inkscape:export-filename="/home/ns/workspace/MoveYourAss/mobile/src/main/res/drawable/cat_driving.png"
       inkscape:export-xdpi="153.75742"
       inkscape:export-ydpi="153.75742"
       inkscape:connector-curvature="0" />
  </g>
  <g
     inkscape:groupmode="layer"
     id="layer5"
     inkscape:label="notification">
    <rect
       style="color:#000000;fill:#000000;fill-opacity:0;fill-rule:nonzero;stroke:none;stroke-width:10;marker:none;visibility:visible;display:inline;overflow:visible;enable-background:accumulate"
       id="rect3106"
       width="240"
       height="240"
       x="193.44693"
       y="370.28033"
       inkscape:export-filename="/home/ns/workspace/MoveYourAss/mobile/src/main/res/drawable-xxhdpi/ic_stat_notify.png"
       inkscape:export-xdpi="27"
       inkscape:export-ydpi="27" />
    <path
       style="fill:#ffffff;fill-opacity:1;stroke:none;display:inline"
       d="m 206.56779,553.42673 c 0,0 15.02211,-5.26908 35.63955,-6.75922 14.09949,-1.01907 24.27175,-3.07238 31.64547,-5.53028 3.15274,-1.05092 -6.75922,-5.8375 -6.75922,-5.8375 0,0 -7.6987,-13.5746 -5.83752,-14.13294 6.14475,-1.84343 1.84344,-9.52437 6.45199,-14.13293 4.60856,-4.60857 13.51845,-3.37962 12.59673,-10.44607 -0.92171,-7.06647 -9.16567,-12.88651 -4.91578,-11.98227 16.62359,3.53694 26.34113,10.41763 32.83224,18.64434 4.86663,6.16787 15.67939,6.5326 18.16918,4.70572 18.99775,-13.93969 19.97042,-28.88033 26.42241,-49.46524 6.45198,-20.58493 29.44707,-33.36514 47.92906,-25.80796 18.48196,7.55716 15.22703,-6.51615 2.66346,-9.9658 -7.19412,-1.97531 -16.94125,-1.79241 -21.71219,-1.09482 -36.67622,5.36333 -60.48167,23.40817 -76.19492,32.56716 -11.10168,6.47101 -27.8407,-12.64086 8.21599,-22.41414 15.26803,-4.13843 48.74961,-24.10241 83.95528,-19.37014 34.41378,4.62581 25.19348,25.19347 23.04281,36.25403 -1.29544,6.66231 6.14477,14.13293 -1.22895,38.09744 -4.74339,15.41599 -5.17006,27.07786 -7.3737,44.85668 -1.85765,14.9872 -21.50663,34.10336 -29.49481,36.86851 -5.22603,1.80901 -20.62694,-2.81632 -4.91581,-9.21714 8.29543,-3.3796 9.52439,-11.67502 11.06058,-18.12701 1.53619,-6.45199 -2.76515,-6.14474 -3.99409,-9.8316 -1.22896,-3.68685 -3.9941,-10.75331 -3.9941,-10.75331 0,0 -4.60856,20.58491 -30.10927,32.25992 -25.42258,11.63926 -52.84483,4.60858 -81.41793,3.68687 -28.25784,-0.91156 -58.11972,5.57618 -59.29684,5.22305 -12.28949,-3.68687 -3.37962,-8.29542 -3.37962,-8.29542 z"
       id="path3800-2"
       inkscape:connector-curvature="0"
       sodipodi:nodetypes="csscssssssszsssssssssssscssscc"
       inkscape:export-filename="/home/ns/workspace/MoveYourAss/mobile/src/main/res/drawable-xxhdpi/ic_stat_notify.png"
       inkscape:export-xdpi="27"
       inkscape:export-ydpi="27" />
  </g>
</svg>
